<?xml version="1.0" standalone="no"?>
<!DOCTYPE svg PUBLIC "-//W3C//DTD SVG 20010904//EN"
 "http://www.w3.org/TR/2001/REC-SVG-20010904/DTD/svg10.dtd">
<svg version="1.0" xmlns="http://www.w3.org/2000/svg"
 width="600.000000pt" height="600.000000pt" viewBox="0 0 600.000000 600.000000"
 preserveAspectRatio="xMidYMid meet">
<metadata>
Created by potrace 1.14, written by Peter Selinger 2001-2017
</metadata>
<g transform="translate(0.000000,600.000000) scale(0.100000,-0.100000)"
fill="#000000" stroke="none">
<path d="M0 5529 l0 -472 34 -37 c18 -20 51 -68 72 -106 38 -67 39 -71 38
-164 -1 -109 -9 -204 -19 -220 -3 -6 -7 -25 -7 -43 0 -17 -7 -43 -14 -57 -7
-14 -34 -69 -59 -123 l-46 -97 3 -158 3 -157 56 75 c158 209 238 456 209 639
-7 42 -16 84 -21 94 -19 35 10 16 65 -44 66 -71 94 -121 103 -184 3 -25 11
-45 18 -45 7 0 29 -34 49 -75 21 -42 62 -102 93 -136 49 -53 60 -60 89 -57 18
1 36 -1 40 -5 4 -4 18 -7 31 -7 20 0 22 -2 11 -19 -8 -13 -9 -24 -2 -33 68
-90 129 -157 186 -203 56 -44 77 -55 106 -55 30 0 44 -8 76 -41 21 -23 64 -53
95 -67 48 -23 69 -27 151 -27 103 1 207 25 217 51 3 8 11 13 18 11 6 -3 36 1
65 9 71 18 162 18 207 -1 51 -22 65 -6 37 43 -36 63 -140 87 -242 57 -50 -15
-53 -15 -106 10 -130 61 -308 199 -466 359 -46 47 -90 86 -97 86 -8 0 -13 -15
-14 -42 l-1 -43 -8 47 c-5 25 -11 55 -14 65 -5 16 -2 19 16 19 13 -1 27 -7 31
-14 16 -24 174 -86 183 -71 9 15 -5 27 -38 35 -18 3 -39 10 -48 15 -78 42
-144 68 -154 60 -7 -6 -20 -3 -36 10 -67 54 -238 160 -300 185 -39 16 -70 32
-70 35 0 4 30 12 66 19 l66 13 -6 43 c-3 24 -17 67 -31 95 -15 28 -21 48 -15
44 6 -3 28 -42 50 -85 45 -90 45 -90 177 -64 228 45 477 -13 685 -159 48 -33
60 -38 73 -27 8 7 15 8 15 3 0 -5 15 -31 33 -59 87 -134 141 -178 402 -325
127 -71 163 -97 233 -167 46 -46 86 -81 89 -79 28 29 -117 170 -360 350 -109
81 -202 147 -207 147 -6 0 -10 6 -10 14 0 7 -9 25 -21 40 -43 54 -100 172
-107 219 -5 35 -13 53 -27 61 -11 6 -24 17 -28 24 -6 9 -25 13 -57 10 l-47 -3
-80 80 c-83 84 -152 130 -160 108 -4 -10 -12 -9 -35 3 -31 16 -143 54 -160 54
-5 0 -16 7 -24 15 -9 8 -33 15 -53 15 -21 0 -94 12 -162 26 -108 23 -140 25
-249 21 -131 -6 -212 -23 -373 -79 -64 -22 -92 -27 -100 -19 -14 14 -15 13 70
50 138 60 227 76 423 75 185 0 305 -16 414 -54 65 -22 96 -25 96 -10 0 5 -39
21 -87 36 -49 14 -95 28 -103 31 -8 3 26 18 75 34 96 32 300 126 375 174 25
16 65 39 90 52 37 18 51 34 78 86 18 35 40 73 48 83 15 19 15 19 9 -1 -13 -40
-18 -105 -8 -105 9 0 54 20 213 93 14 6 27 13 29 14 2 2 -4 13 -15 25 -14 17
-15 19 -2 9 20 -15 38 -7 39 17 0 12 3 11 9 -5 11 -27 7 -27 95 -8 39 8 115
15 170 15 189 0 335 29 335 67 0 7 6 10 13 7 7 -2 31 8 53 24 36 27 49 29 154
35 113 6 279 42 302 65 23 23 -5 32 -106 32 -131 0 -242 19 -403 71 -70 22
-146 41 -167 42 -74 4 -46 -18 61 -47 286 -76 335 -87 423 -93 l95 -7 -45 -14
c-27 -8 -97 -14 -175 -15 -111 -1 -151 3 -275 30 -96 20 -177 31 -240 32 -52
1 -96 4 -99 7 -3 2 5 24 17 49 12 25 17 47 12 50 -5 3 -65 -16 -132 -43 -226
-90 -263 -91 -408 -7 l-95 55 80 1 c44 1 212 2 373 2 222 0 292 3 292 12 0 21
-60 23 -445 20 -353 -3 -527 -14 -541 -36 -3 -5 -18 -9 -33 -9 -41 0 -142 -37
-205 -75 -31 -18 -56 -33 -56 -32 0 1 9 36 20 77 23 88 25 120 7 120 -9 0 -20
-28 -30 -77 -10 -43 -22 -85 -28 -93 -9 -13 -10 -12 -5 3 18 56 -119 177 -140
123 -7 -18 37 -116 53 -116 6 0 13 8 15 17 2 13 12 3 31 -30 18 -30 26 -55 22
-65 -6 -13 -11 -7 -26 26 -21 49 -45 58 -35 12 3 -16 9 -43 12 -59 6 -27 2
-33 -42 -60 -26 -17 -55 -31 -63 -31 -9 0 -34 -9 -57 -19 l-41 -18 19 35 c10
21 18 58 18 87 0 37 9 68 36 122 24 49 34 83 32 105 -3 32 -4 33 -55 36 l-52
3 -11 -43 c-6 -24 -15 -52 -20 -63 -8 -18 -9 -18 -9 -2 -1 25 -115 77 -185 84
-31 3 -56 10 -56 14 0 5 -9 9 -20 9 -14 0 -20 -7 -20 -24 0 -48 7 -53 64 -48
68 5 158 -22 154 -46 -2 -13 6 -18 30 -20 17 -2 32 -7 32 -11 0 -9 -62 -182
-84 -235 -9 -21 -13 -43 -10 -48 3 -5 -4 -17 -16 -25 -13 -9 -20 -22 -17 -34
3 -10 -1 -20 -8 -23 -7 -2 -36 -45 -64 -95 -29 -50 -57 -94 -63 -97 -6 -4 -8
-2 -4 4 3 6 -4 18 -16 26 -12 9 -18 16 -13 16 4 0 -1 10 -12 23 -11 12 -23 30
-26 40 -4 10 -10 16 -14 14 -9 -5 -13 22 -14 94 -1 31 10 75 34 135 20 49 43
115 52 146 18 65 40 78 131 78 41 0 54 4 54 15 0 22 -124 21 -169 -3 -29 -14
-37 -26 -49 -69 -8 -29 -18 -53 -21 -53 -4 0 -12 21 -19 47 -7 25 -26 79 -43
119 l-30 72 -74 1 -75 1 0 -471z m1424 376 c-3 -8 -26 -17 -52 -20 -166 -23
-313 -78 -417 -157 l-40 -30 36 34 c20 18 49 41 63 51 20 14 24 22 16 31 -8
10 3 18 46 35 31 11 60 21 64 21 5 0 21 5 37 12 15 6 31 11 34 10 3 0 41 5 85
13 110 18 135 18 128 0z m-566 -216 c-73 -82 -101 -99 -160 -98 -47 0 -44 3
44 34 28 10 71 39 110 75 35 33 64 59 66 60 2 0 -25 -32 -60 -71z m1657 21 c3
-6 -1 -7 -9 -4 -18 7 -21 14 -7 14 6 0 13 -4 16 -10z m-207 -87 c-10 -2 -26
-2 -35 0 -10 3 -2 5 17 5 19 0 27 -2 18 -5z m-1698 -130 c-30 -32 -73 -85 -94
-118 -200 -307 -173 -270 -205 -280 -23 -7 -22 -3 19 71 142 259 244 384 315
384 17 0 10 -11 -35 -57z m-463 -15 c-3 -8 -6 -5 -6 6 -1 11 2 17 5 13 3 -3 4
-12 1 -19z m131 -209 c12 -18 6 -31 -54 -125 -37 -58 -68 -103 -70 -101 -10 9
92 247 105 247 3 0 12 -9 19 -21z m16 -97 c-31 -56 -60 -102 -66 -102 -5 0 -8
4 -6 8 7 19 123 201 125 198 2 -1 -22 -48 -53 -104z m236 54 c0 -2 -8 -10 -17
-17 -16 -13 -17 -12 -4 4 13 16 21 21 21 13z m-465 -176 c10 -11 16 -20 13
-20 -3 0 -13 9 -23 20 -10 11 -16 20 -13 20 3 0 13 -9 23 -20z m586 -177 c13
-16 12 -17 -3 -4 -10 7 -18 15 -18 17 0 8 8 3 21 -13z m950 -180 c13 -16 12
-17 -3 -4 -10 7 -18 15 -18 17 0 8 8 3 21 -13z m-34 -75 c-3 -7 -5 -2 -5 12 0
14 2 19 5 13 2 -7 2 -19 0 -25z m-1077 -10 c143 -45 334 -153 409 -231 26 -27
34 -46 38 -84 7 -69 10 -78 27 -64 11 9 15 7 19 -10 8 -29 27 -14 27 22 0 16
2 29 4 29 3 0 47 -40 98 -89 153 -146 298 -258 410 -316 25 -13 33 -22 25 -27
-37 -24 -100 7 -232 112 -95 76 -150 113 -210 139 -51 23 -175 135 -175 159 0
27 -70 121 -112 150 -46 32 -168 95 -168 88 0 -3 -28 11 -62 30 -44 25 -64 32
-72 24 -14 -15 22 -43 46 -37 10 3 16 0 15 -6 -1 -5 27 -31 63 -56 36 -25 98
-77 137 -115 47 -44 78 -66 88 -62 10 3 15 -1 15 -12 0 -10 16 -34 36 -53 20
-18 81 -87 137 -153 99 -117 208 -212 234 -202 7 3 13 1 13 -5 0 -5 19 -18 43
-28 l42 -18 -75 -7 c-88 -8 -135 -3 -135 13 0 6 -13 20 -30 31 l-30 20 33 0
c20 0 35 6 39 15 8 21 7 21 -64 29 -57 6 -63 5 -63 -11 0 -11 -3 -14 -8 -7 -8
13 -88 64 -99 64 -5 -1 6 -12 22 -26 17 -15 23 -23 15 -19 -25 13 -60 47 -55
55 4 7 -77 91 -91 94 -5 0 -8 5 -6 10 4 11 -18 37 -27 32 -4 -3 -7 4 -8 14 -2
20 23 30 79 30 42 0 57 14 31 28 -28 15 -193 44 -232 40 -20 -2 -34 1 -33 5 6
13 -50 67 -61 60 -6 -3 -7 -1 -4 4 4 6 -15 44 -41 84 -27 41 -57 94 -67 119
-11 25 -33 68 -50 95 -17 28 -34 55 -38 62 -8 13 10 10 103 -19z m365 -298
c10 -11 16 -20 13 -20 -3 0 -13 9 -23 20 -10 11 -16 20 -13 20 3 0 13 -9 23
-20z m770 -508 c-3 -3 -11 0 -18 7 -9 10 -8 11 6 5 10 -3 15 -9 12 -12z m-277
-59 c-10 -2 -26 -2 -35 0 -10 3 -2 5 17 5 19 0 27 -2 18 -5z"/>
<path d="M2214 5939 c-3 -6 -2 -15 4 -21 12 -12 43 -7 43 7 1 14 -39 26 -47
14z"/>
<path d="M3582 5539 c-51 -26 -82 -67 -89 -117 -7 -53 28 -85 92 -84 55 1 56
14 -16 -166 -47 -118 -151 -312 -222 -417 l-34 -49 -79 -2 c-89 -1 -133 -16
-187 -63 -93 -83 -57 -191 65 -191 55 0 112 35 187 114 l53 57 112 -37 c125
-42 178 -46 226 -18 47 28 59 49 37 71 -15 15 -21 16 -50 4 -60 -25 -84 -24
-181 9 -53 18 -96 34 -96 36 0 2 20 34 44 71 113 177 228 420 271 575 14 50
22 60 63 87 68 43 104 84 100 112 -5 41 -43 36 -95 -12 -42 -38 -47 -41 -53
-23 -22 56 -85 75 -148 43z m68 -82 c0 -24 -33 -47 -66 -47 -13 0 -13 4 1 29
23 45 65 56 65 18z m-453 -882 c-60 -57 -102 -71 -114 -39 -15 40 58 94 126
94 l46 -1 -58 -54z"/>
<path d="M4462 5518 c-6 -8 -16 -36 -22 -63 -57 -261 -289 -706 -434 -833 -49
-42 -99 -67 -121 -58 -23 8 -15 52 24 126 221 425 289 580 319 732 13 65 -15
106 -55 80 -7 -4 -24 -51 -37 -104 -34 -134 -84 -255 -184 -448 -47 -91 -101
-195 -120 -232 -21 -40 -37 -88 -40 -117 -4 -46 -2 -53 26 -81 61 -61 162 -32
272 79 144 145 336 501 414 768 33 113 32 157 -5 161 -14 2 -31 -3 -37 -10z"/>
<path d="M4724 5491 c-61 -28 -105 -86 -142 -192 -38 -106 -148 -324 -242
-478 -105 -174 -124 -251 -74 -310 22 -27 33 -31 73 -31 128 0 309 171 435
413 38 72 44 91 35 108 -7 14 -18 19 -36 17 -21 -2 -34 -19 -70 -88 -86 -162
-212 -314 -300 -359 -117 -59 -109 12 27 244 104 178 199 365 229 454 30 86
46 115 77 140 33 26 70 27 84 2 18 -34 11 -119 -15 -198 -28 -82 -24 -103 21
-103 31 0 56 49 79 153 19 85 16 144 -9 182 -37 57 -108 76 -172 46z"/>
<path d="M5415 5430 c-76 -99 -142 -171 -208 -227 -34 -29 -65 -53 -68 -53 -3
0 -11 32 -18 72 -13 76 -55 214 -73 235 -14 18 -53 16 -68 -2 -11 -13 -10 -22
3 -51 28 -57 57 -184 64 -270 6 -80 5 -82 -33 -150 -60 -108 -271 -432 -326
-501 -55 -70 -59 -96 -13 -101 27 -3 37 5 82 60 28 35 76 104 108 153 32 50
88 137 126 195 37 58 87 142 111 187 36 66 55 90 104 127 129 96 317 311 312
356 -2 19 -10 26 -29 28 -23 3 -35 -7 -74 -58z"/>
<path d="M1135 5020 c-6 -10 51 -40 76 -40 26 0 260 -122 354 -185 109 -72
116 -75 122 -59 5 14 -196 149 -297 199 -57 29 -229 95 -246 95 -2 0 -6 -5 -9
-10z"/>
<path d="M1704 4719 c-3 -6 6 -22 22 -35 48 -39 76 -27 32 13 -34 30 -46 35
-54 22z"/>
<path d="M1795 4650 c-4 -7 -3 -15 1 -19 5 -4 32 -25 59 -46 142 -112 319
-294 414 -426 43 -60 101 -173 121 -233 11 -34 10 -40 -3 -48 -9 -5 -14 -15
-10 -24 4 -12 -5 -11 -47 6 -29 12 -60 18 -68 15 -21 -8 -10 -16 66 -45 58
-22 68 -29 77 -58 11 -37 36 -40 45 -5 l5 22 44 -20 c48 -21 99 -29 101 -15 2
13 -112 57 -133 52 -12 -3 -19 3 -22 22 -39 200 -126 348 -324 555 -87 90
-188 180 -283 251 -24 18 -38 23 -43 16z"/>
<path d="M427 4403 c-4 -3 -7 -22 -7 -41 0 -118 -145 -427 -291 -620 -35 -47
-46 -69 -39 -76 8 -8 20 -1 40 24 l29 35 1 -123 c0 -145 2 -147 91 -108 33 14
62 26 63 26 2 0 -31 -34 -73 -75 l-76 -74 0 -116 c0 -63 0 -115 0 -115 0 1
-161 50 -163 50 -2 0 -2 -7 0 -16 2 -10 32 -25 83 -41 44 -14 83 -30 87 -37 4
-6 8 -24 8 -41 0 -38 35 -204 56 -270 18 -53 70 -125 111 -152 20 -13 31 -14
54 -6 24 9 29 9 29 -4 0 -22 65 -83 89 -83 26 0 63 40 101 111 27 51 29 69 9
69 -4 0 -20 -24 -37 -52 -16 -29 -39 -64 -49 -77 -19 -24 -22 -24 -45 -9 -18
12 -27 30 -34 71 -6 31 -7 54 -3 52 8 -6 70 95 96 160 36 86 53 166 59 275 4
63 14 130 26 169 26 81 20 165 -19 271 -27 76 -31 127 -24 305 3 68 -16 122
-75 210 -37 57 -38 69 -4 78 16 4 29 -7 60 -54 61 -90 138 -245 167 -337 14
-45 29 -85 34 -87 37 -24 -12 138 -87 286 -61 119 -178 301 -218 338 -18 17
-26 35 -26 58 0 31 -9 41 -23 26z m23 -197 c0 -2 -7 -6 -15 -10 -8 -3 -15 -1
-15 4 0 6 7 10 15 10 8 0 15 -2 15 -4z m40 -262 c26 -122 60 -361 60 -426 0
-26 4 -48 8 -48 22 0 -6 -267 -50 -480 -58 -286 -94 -363 -151 -325 -74 48
-121 191 -152 455 -18 161 -19 204 -4 233 7 11 63 71 125 132 101 99 134 145
104 145 -5 0 -34 -17 -64 -39 -31 -21 -69 -44 -86 -51 -16 -7 -30 -17 -30 -22
0 -5 -4 -6 -10 -3 -5 3 -18 1 -29 -4 -18 -10 -18 -6 -14 92 l5 102 62 76 c34
43 81 115 105 161 24 45 53 96 64 112 19 27 21 28 28 9 4 -11 17 -65 29 -119z
m97 -381 c-3 -10 -5 -4 -5 12 0 17 2 24 5 18 2 -7 2 -21 0 -30z m10 -300 c-3
-10 -5 -4 -5 12 0 17 2 24 5 18 2 -7 2 -21 0 -30z"/>
<path d="M1200 4287 c0 -13 106 -63 235 -112 39 -14 81 -32 95 -40 33 -17 74
-23 77 -10 2 10 -60 39 -182 85 -33 13 -93 38 -133 56 -80 37 -92 40 -92 21z"/>
<path d="M1630 4115 c0 -8 12 -18 27 -21 14 -4 67 -27 117 -52 50 -24 109 -50
131 -58 123 -40 185 -63 224 -83 31 -16 46 -20 54 -12 6 6 9 12 6 14 -16 13
-102 52 -149 67 -121 41 -169 59 -260 102 -116 55 -150 64 -150 43z"/>
<path d="M4057 4085 c-9 -9 -17 -26 -17 -38 0 -34 92 -209 112 -215 10 -2 18
-12 18 -21 0 -9 27 -43 61 -76 33 -33 75 -87 92 -120 18 -32 48 -76 68 -97 61
-64 103 -46 115 49 6 51 12 64 55 109 26 29 51 64 55 79 11 45 -28 150 -84
223 -48 62 -60 26 -13 -39 17 -22 40 -70 51 -105 l22 -65 -25 -38 c-14 -21
-41 -46 -61 -55 -28 -13 -36 -23 -36 -44 0 -28 -12 -8 -91 150 -15 31 -33 59
-39 63 -5 3 -35 40 -65 80 -59 80 -115 125 -161 128 -43 3 -36 -22 9 -38 47
-16 68 -35 120 -105 23 -30 52 -67 66 -81 15 -14 32 -43 40 -65 8 -21 25 -56
38 -77 32 -51 44 -85 47 -129 l2 -38 -24 22 c-13 13 -39 53 -59 90 -23 44 -59
89 -107 135 -51 48 -82 88 -107 138 -20 39 -44 84 -54 101 -37 62 2 80 96 44
36 -14 55 -18 62 -11 7 7 -5 17 -39 32 -67 30 -126 36 -147 14z"/>
<path d="M4314 4080 c-17 -6 -38 -17 -45 -26 -13 -15 -11 -16 21 -10 111 20
115 20 153 -13 45 -40 62 -22 19 21 -33 34 -93 45 -148 28z"/>
<path d="M4265 4020 c-8 -13 3 -30 21 -30 18 0 18 14 0 29 -10 8 -16 9 -21 1z"/>
<path d="M4310 3969 c0 -6 20 -33 44 -59 23 -27 58 -83 77 -124 31 -70 50 -89
63 -68 9 16 -78 175 -119 219 -41 42 -65 54 -65 32z"/>
<path d="M2210 3886 c0 -9 7 -16 16 -16 9 0 14 5 12 12 -6 18 -28 21 -28 4z"/>
<path d="M3326 3778 c-8 -13 -18 -40 -21 -61 -5 -25 -12 -37 -20 -33 -29 11
-136 -68 -149 -110 -6 -19 -12 -21 -49 -17 -45 5 -77 -12 -77 -42 0 -21 29
-45 54 -45 13 0 42 -14 66 -31 24 -18 55 -35 69 -39 24 -6 27 -12 32 -76 4
-38 8 -78 9 -89 1 -11 2 -57 1 -102 -1 -82 -1 -83 -27 -83 -14 0 -34 5 -44 10
-13 7 -21 7 -26 -1 -10 -17 10 -30 55 -36 47 -6 51 -14 16 -37 -35 -23 -65
-20 -134 16 -60 31 -86 33 -61 4 6 -9 35 -26 63 -39 44 -22 48 -26 31 -35 -10
-5 -61 -12 -112 -13 l-92 -4 0 35 c0 30 4 37 30 47 42 16 66 73 48 111 -11 23
-19 27 -48 25 -32 -3 -79 -9 -89 -12 -9 -2 33 -41 44 -41 7 0 18 7 25 15 21
25 40 18 40 -14 0 -31 -15 -50 -22 -29 -2 6 -10 8 -17 4 -9 -6 -9 -11 0 -22
13 -16 -2 -19 -18 -3 -17 17 -25 -5 -26 -71 l0 -58 -58 -16 c-72 -20 -80 -20
-73 -1 4 8 12 15 20 15 30 0 12 27 -25 38 -39 12 -62 36 -76 81 -7 22 -5 24
23 18 18 -4 34 -2 38 4 10 17 -17 30 -56 27 l-35 -3 0 -50 c0 -37 -6 -58 -22
-79 -13 -16 -23 -37 -23 -47 0 -12 -15 -25 -44 -37 -24 -11 -47 -25 -50 -31
-4 -6 -11 -9 -14 -7 -4 2 -43 -4 -87 -15 -43 -10 -80 -17 -82 -15 -2 2 26 61
62 131 41 78 64 134 60 144 -6 14 -8 14 -21 -4 -8 -11 -44 -78 -80 -150 -36
-71 -77 -142 -91 -157 -23 -24 -24 -28 -9 -34 10 -4 26 1 39 14 13 11 56 27
102 37 44 9 89 22 100 28 11 6 24 10 28 9 4 -1 21 5 37 13 30 16 80 20 80 8
-1 -5 -40 -26 -88 -48 -47 -22 -126 -64 -174 -93 -70 -41 -92 -50 -107 -43
-10 6 -37 11 -60 12 -56 4 -75 26 -68 79 3 22 1 43 -5 46 -18 12 -29 -20 -24
-72 l4 -52 -45 -5 c-62 -7 -97 -35 -101 -80 -2 -20 2 -45 8 -57 14 -26 16 -26
-225 1 -159 18 -223 20 -395 15 -113 -3 -218 -9 -233 -12 -31 -7 -31 -31 -1
-26 10 1 105 5 209 8 277 9 537 -18 1031 -110 164 -31 351 -65 414 -76 63 -12
140 -28 170 -35 30 -8 96 -22 145 -31 100 -17 597 -123 601 -127 2 -2 -54 -9
-124 -16 -157 -15 -224 -29 -219 -44 2 -7 13 -11 23 -10 10 1 80 10 154 19
292 36 676 1 958 -86 34 -11 69 -20 77 -20 19 0 19 -11 0 -36 -28 -37 -15 -89
33 -132 19 -16 34 -21 52 -17 25 6 77 54 97 89 10 18 13 18 61 2 56 -19 133
-18 140 2 2 8 -9 12 -35 12 -63 0 -139 27 -161 57 -24 33 -39 27 -76 -25 -37
-54 -24 -80 15 -32 38 45 49 31 13 -17 -34 -47 -43 -53 -72 -53 -17 0 -27 9
-38 35 -14 34 -13 38 18 92 29 49 38 57 64 57 16 0 36 -4 43 -8 12 -8 247 -35
335 -39 30 -1 50 2 53 10 5 15 -18 19 -245 42 -100 10 -185 21 -189 25 -13 13
70 86 106 92 42 8 145 9 157 2 5 -3 25 -9 44 -13 92 -19 163 -83 157 -141 -2
-18 -12 -43 -22 -54 -20 -22 -84 -43 -118 -38 -26 3 -50 -10 -42 -23 10 -14
92 -11 133 6 20 9 47 25 58 36 l22 21 21 -21 c42 -42 131 -39 173 7 36 38 48
65 48 109 1 21 6 48 14 61 l12 23 40 -43 39 -43 -33 -3 c-49 -5 -35 -20 40
-46 161 -54 281 -191 323 -368 22 -93 19 -253 -6 -360 -12 -49 -22 -88 -24
-86 -2 2 3 57 11 123 24 207 7 333 -49 369 -74 49 -181 -100 -298 -419 -38
-103 -110 -345 -105 -354 2 -3 -2 -11 -9 -18 -10 -10 -14 -9 -19 2 -4 11 -22
15 -68 15 -78 0 -198 -17 -213 -30 -6 -5 -15 -6 -21 -1 -16 15 -632 -96 -721
-130 -13 -5 -32 -9 -41 -9 -14 0 -13 4 5 22 19 18 59 28 243 59 236 40 250 43
250 59 0 16 -30 13 -253 -25 -114 -19 -208 -35 -210 -35 -2 0 7 39 20 88 12
48 21 93 18 100 -9 24 -24 11 -35 -30 -30 -119 -61 -206 -76 -212 -11 -4 -15
-2 -11 8 24 61 51 169 68 264 39 228 14 546 -41 534 -10 -2 -11 0 -2 10 19 23
-21 76 -75 100 -165 73 -423 -133 -584 -465 -71 -146 -140 -387 -184 -641 -8
-50 -23 -98 -32 -108 -15 -17 -15 -18 18 -13 l34 5 -40 -18 c-28 -14 -42 -16
-47 -8 -6 8 -10 8 -15 0 -9 -13 -358 -13 -385 0 -10 4 -33 29 -51 54 -40 55
-118 102 -180 107 -81 6 -303 37 -477 66 -725 123 -1583 396 -1909 609 -35 23
-70 39 -78 36 -7 -3 -13 0 -12 7 4 31 -2 39 -22 34 -16 -4 -19 -3 -11 5 7 7 5
20 -9 42 -10 17 -19 34 -19 37 0 14 40 16 51 3 16 -20 109 -80 171 -111 51
-25 98 -65 98 -82 0 -18 272 -143 335 -155 6 -1 15 -4 20 -8 39 -23 596 -168
648 -168 13 0 27 -4 33 -10 5 -5 32 -13 59 -16 34 -5 61 -16 82 -35 38 -33
139 -65 333 -108 181 -39 258 -51 300 -48 35 2 45 21 12 23 -9 0 -24 3 -32 6
-8 3 -100 22 -205 43 -179 35 -369 86 -379 103 -12 20 70 11 120 -13 63 -30
256 -77 404 -99 251 -37 419 -58 472 -60 34 0 56 -5 54 -11 -4 -12 -7 -12
-197 9 -85 10 -164 18 -174 19 -11 1 -21 -5 -23 -14 -2 -13 7 -18 45 -23 26
-3 107 -13 178 -22 237 -30 320 -21 350 36 10 18 17 80 21 179 7 143 6 151
-11 151 -18 0 -18 0 0 14 18 13 18 15 -6 62 -30 61 -75 85 -214 113 -122 25
-276 51 -330 57 -22 2 -78 11 -125 20 -231 43 -634 114 -651 114 -10 0 -19 -6
-19 -14 0 -10 35 -20 123 -36 67 -12 149 -28 182 -34 l60 -12 -66 -13 c-57
-11 -79 -10 -155 4 -49 9 -102 20 -119 25 -16 5 -49 14 -72 20 l-43 11 7 59
c5 50 3 64 -12 80 -20 22 -45 27 -45 9 0 -7 8 -17 17 -24 15 -11 15 -15 4 -29
-7 -9 -20 -51 -28 -93 -24 -125 19 -125 -400 -3 -202 59 -370 105 -372 104 -2
-2 1 -17 7 -33 16 -45 -3 -38 -21 8 -12 30 -23 41 -46 46 -17 3 -35 4 -41 0
-14 -9 -12 86 3 161 7 34 10 70 6 80 -6 16 -10 13 -23 -18 -9 -21 -16 -44 -16
-53 0 -8 -2 -15 -5 -15 -13 0 -83 40 -94 54 -12 14 -10 15 19 9 57 -11 30 17
-61 64 -47 24 -110 64 -140 89 -29 24 -56 44 -59 44 -3 0 -6 -18 -7 -40 -1
-22 -4 -44 -7 -49 -3 -5 -41 0 -83 10 -95 22 -93 22 -93 5 0 -10 27 -21 81
-33 l82 -19 2 -40 c1 -21 -3 -53 -8 -71 -8 -25 -7 -37 7 -57 9 -14 13 -26 8
-26 -19 0 -31 -46 -18 -71 10 -20 9 -26 -6 -39 -14 -11 -20 -35 -25 -97 -5
-71 -3 -85 15 -115 30 -49 87 -100 170 -153 93 -60 355 -186 447 -216 39 -13
93 -33 120 -45 103 -44 409 -136 688 -205 316 -78 897 -169 1187 -185 92 -6
121 -11 144 -27 21 -15 55 -23 134 -30 97 -8 108 -11 132 -37 30 -32 81 -59
169 -89 96 -33 271 -73 292 -68 11 3 22 1 25 -4 17 -28 153 6 233 59 68 45
108 99 174 234 46 94 55 106 74 101 12 -3 34 2 50 11 96 54 551 163 763 182
l68 7 11 -40 c19 -69 40 -80 248 -129 245 -57 261 -57 318 0 24 24 58 73 76
108 38 75 81 197 73 209 -2 4 0 16 5 26 5 10 14 32 20 48 5 17 24 64 41 105
43 102 70 222 75 333 l5 92 56 14 c48 12 76 32 62 46 -2 2 -26 -2 -53 -10 -26
-8 -54 -15 -61 -15 -10 0 -34 76 -34 109 0 5 34 14 75 20 56 9 75 16 75 28 0
13 -8 15 -44 10 l-45 -6 -6 57 c-11 105 -15 122 -31 122 -13 0 -14 -14 -8 -95
6 -89 6 -95 -12 -94 -13 0 -28 19 -49 62 -37 77 -140 182 -215 219 -38 19 -59
37 -68 58 -8 16 -33 50 -57 75 -44 45 -44 45 -17 45 53 0 102 13 102 26 0 10
-16 13 -66 11 l-66 -2 -12 46 c-7 25 -21 59 -33 74 l-20 28 38 37 c27 26 39
45 39 65 0 27 1 28 44 22 l45 -6 41 75 c23 42 43 74 45 72 9 -9 96 -214 101
-236 2 -13 23 -68 45 -124 25 -61 37 -104 31 -110 -5 -5 -25 -11 -45 -15 -39
-6 -39 -5 -51 50 -8 33 -40 48 -86 38 -50 -10 -52 -34 -4 -31 60 4 64 2 64
-30 0 -45 38 -66 95 -53 l44 10 21 -68 c20 -68 32 -85 49 -75 10 7 -48 209
-85 298 -39 93 -56 149 -50 164 4 10 2 12 -6 8 -8 -5 -9 -2 -5 10 4 9 3 15 -2
12 -5 -3 -19 20 -32 52 -12 31 -32 77 -44 102 -11 25 -19 56 -17 69 l4 23 14
-21 c9 -12 12 -26 8 -33 -4 -7 -3 -8 5 -4 8 5 23 -17 45 -66 48 -106 83 -177
108 -224 13 -23 24 -47 26 -55 1 -8 34 -93 71 -189 38 -96 73 -188 79 -205 10
-28 10 -27 11 20 0 35 -9 75 -33 132 -36 86 -34 93 15 93 11 0 19 7 19 16 0
12 -9 15 -41 12 -41 -3 -41 -3 -61 47 -11 28 -25 61 -31 75 -11 27 -14 35 -16
49 0 5 -7 16 -14 23 -7 7 -21 33 -30 58 -10 25 -48 107 -86 183 -66 134 -68
139 -56 175 11 31 18 38 44 40 34 4 42 21 12 29 -15 4 -20 16 -23 54 -3 52 2
59 48 59 18 0 31 -10 45 -35 24 -40 26 -41 58 -18 l24 16 -19 -32 c-15 -26
-16 -35 -6 -51 14 -24 6 -25 -48 -10 -20 6 -38 6 -43 1 -12 -12 17 -27 68 -36
22 -4 45 -13 50 -19 6 -7 36 -29 68 -49 51 -33 57 -35 57 -17 0 13 -16 30 -46
49 -31 19 -52 42 -64 68 -17 38 -17 41 1 64 24 31 24 46 -2 59 -17 9 -25 8
-41 -6 -19 -18 -20 -18 -30 -1 -51 92 -139 121 -171 57 -7 -13 -18 -25 -25
-28 -21 -7 14 55 37 68 33 17 101 12 137 -11 31 -19 61 -19 49 1 -3 4 3 10 13
12 22 6 57 -21 106 -80 l36 -44 0 29 c0 31 -54 91 -105 117 l-29 15 55 25 c30
14 59 26 65 26 7 0 11 32 12 90 2 104 5 101 -91 69 -70 -24 -90 -37 -83 -55 3
-8 -10 -13 -42 -16 -26 -3 -48 -4 -50 -3 -1 1 5 24 13 50 9 33 11 53 4 61 -6
8 -5 13 4 17 7 2 18 27 25 54 19 72 102 238 156 311 59 80 60 93 2 89 -67 -6
-195 -91 -196 -129 0 -19 15 -24 25 -9 3 5 24 24 48 42 23 18 34 24 24 13 -9
-11 -14 -24 -10 -29 5 -4 3 -5 -4 -1 -15 8 -125 -123 -118 -142 2 -7 1 -10 -4
-7 -6 3 -22 -17 -37 -44 -16 -27 -32 -47 -36 -45 -13 8 11 55 64 127 35 47 48
71 40 79 -7 7 -23 -6 -52 -43 -73 -92 -93 -146 -70 -189 9 -18 8 -19 -19 -14
-26 6 -29 3 -37 -31 l-9 -37 -32 46 c-18 25 -37 46 -43 46 -12 0 -13 -27 -1
-34 13 -9 62 -104 81 -161 18 -54 46 -71 53 -33 4 20 4 20 6 -4 1 -20 -4 -28
-15 -28 -14 0 -15 -7 -10 -42 l6 -43 -35 65 c-19 36 -41 70 -48 75 -7 6 -25
31 -39 56 -15 25 -48 72 -73 103 -31 38 -41 56 -31 56 9 0 16 7 16 15 0 16
-51 41 -108 51 -41 8 -102 46 -147 93 l-30 32 40 -16 c22 -9 49 -20 60 -24 11
-5 47 -19 80 -32 40 -15 79 -41 117 -77 55 -52 85 -57 53 -9 -28 43 -96 89
-181 123 -46 18 -106 44 -133 59 -83 46 -90 23 -31 -101 33 -69 48 -89 83
-111 23 -14 55 -37 70 -50 16 -13 33 -21 37 -18 5 3 6 -11 3 -30 -5 -30 0 -44
30 -88 20 -29 56 -71 81 -94 24 -23 42 -44 39 -46 -2 -3 -28 5 -56 19 -29 13
-84 29 -122 35 -68 12 -129 5 -240 -26 -11 -3 -49 -9 -85 -13 -78 -8 -86 -27
-25 -57 29 -14 62 -20 120 -21 44 0 90 -6 102 -12 12 -7 50 -12 85 -12 61 0
66 -2 113 -44 28 -24 48 -46 45 -49 -3 -3 -26 0 -50 8 -48 14 -217 60 -262 71
-22 5 -28 2 -28 -10 0 -10 15 -19 43 -26 153 -40 155 -41 153 -66 -1 -22 -26
-36 -26 -14 0 13 -39 13 -79 -1 -47 -17 -40 -42 17 -59 26 -7 52 -14 57 -15 6
-1 38 -10 73 -20 l63 -18 -19 -21 c-11 -12 -24 -36 -31 -55 -16 -48 -14 -136
3 -150 11 -10 21 3 52 66 l39 78 6 -99 c4 -76 9 -102 22 -111 21 -15 22 -25 2
-25 -8 0 -19 -9 -25 -20 -8 -14 -21 -20 -46 -20 -74 0 -116 40 -150 143 -33
99 -79 154 -135 163 -22 4 -39 10 -39 14 0 11 42 29 75 32 40 4 38 22 -3 26
-21 2 -47 -5 -70 -18 l-37 -22 24 25 c13 14 36 29 52 32 29 7 37 19 20 29 -13
9 -62 -12 -88 -36 l-23 -21 0 31 c0 19 8 40 21 53 20 20 20 49 0 49 -20 0 -71
-52 -82 -84 -12 -32 -14 -33 -42 -24 -37 13 -95 -3 -125 -35 -25 -27 -41 -87
-23 -87 7 0 11 -8 9 -17 -2 -12 3 -18 15 -17 9 1 17 -5 17 -13 0 -21 24 -10
28 13 6 31 32 44 88 44 l53 0 -21 -32 c-18 -27 -29 -33 -57 -33 -26 0 -36 -5
-39 -17 -3 -15 2 -17 27 -12 l31 7 0 -50 c0 -35 6 -58 20 -76 13 -16 16 -28
10 -32 -20 -12 2 -26 31 -20 36 8 59 -8 52 -36 -11 -41 -87 -67 -99 -34 -8 19
-34 20 -34 1 0 -7 -16 -40 -36 -72 -19 -33 -38 -71 -41 -87 -7 -34 -42 -60
-110 -82 -62 -20 -118 -8 -135 31 -14 30 4 77 38 99 13 8 24 23 24 32 0 15 1
15 13 -1 13 -17 15 -16 40 14 15 17 27 35 27 40 0 4 9 6 20 3 24 -6 26 9 4 28
-35 29 -53 93 -38 133 5 13 10 14 20 5 7 -6 18 -8 24 -4 8 5 2 17 -16 36 -33
35 -52 37 -53 7 0 -13 -4 -44 -7 -70 -4 -33 -1 -56 10 -79 11 -21 13 -36 6
-48 -8 -14 -9 -14 -10 0 0 8 -5 20 -11 26 -6 6 -12 43 -13 82 -1 66 -3 72 -36
104 -19 18 -52 43 -72 56 -24 14 -39 32 -43 51 -7 33 -35 41 -35 11 0 -19 -3
-19 -57 6 -32 14 -59 27 -61 29 -8 6 23 51 49 72 18 14 31 37 35 60 7 38 57
125 126 219 40 55 46 73 25 73 -7 0 -45 -47 -83 -105 -38 -58 -71 -105 -74
-105 -3 1 -14 15 -25 32 -23 35 -50 56 -61 45 -4 -4 2 -17 13 -30 19 -21 43
-60 43 -71 0 -2 -13 2 -29 10 -72 36 -198 37 -264 3 l-22 -12 20 23 c11 12 33
29 49 37 19 10 25 18 18 25 -16 16 -47 1 -84 -40 l-33 -37 -80 17 c-44 9 -107
20 -140 23 l-61 7 1 79 0 79 35 6 c19 3 41 6 48 7 7 1 13 7 12 12 0 6 -23 9
-50 9 l-49 -2 31 87 c17 47 32 93 33 101 1 9 11 14 24 13 14 -2 21 3 21 13 0
10 -6 14 -15 10 -11 -4 -15 1 -15 19 0 37 -22 51 -129 84 -117 37 -115 36
-139 11 -17 -18 -23 -19 -74 -8 l-56 12 -7 102 c-4 56 -4 119 0 141 10 63 -38
99 -69 51z m39 -182 c3 -93 7 -172 10 -176 3 -5 1 -11 -3 -14 -5 -3 -5 -30 0
-61 5 -36 5 -70 -2 -93 -14 -51 -13 -84 4 -118 8 -16 18 -53 22 -83 6 -49 5
-54 -10 -48 -24 9 -77 -17 -120 -59 -24 -24 -44 -34 -66 -34 -19 0 -30 -5 -30
-14 0 -10 20 -16 68 -21 38 -4 75 -11 83 -16 9 -5 -5 -6 -36 -1 -27 4 -134 7
-237 7 -106 0 -176 3 -160 8 41 12 233 24 238 15 3 -5 12 -8 21 -8 10 0 14 6
10 20 -4 16 9 27 69 60 66 36 92 60 65 60 -14 0 -21 62 -26 245 l-4 170 -32
-3 c-23 -3 -43 5 -76 29 -25 17 -59 35 -75 38 -32 7 -41 24 -14 29 29 6 63 -7
92 -33 28 -26 53 -32 70 -16 5 5 26 14 46 20 20 7 40 21 43 31 8 25 -4 67 -21
74 -15 6 -17 -1 -15 -49 2 -29 1 -29 -14 -11 -18 23 -20 87 -4 103 16 16 39 5
39 -18 0 -10 6 -19 14 -19 9 0 15 20 18 69 5 63 14 98 24 88 2 -2 6 -79 9
-171z m-130 -69 c4 -6 0 -3 -9 7 -8 10 -17 24 -19 30 -3 8 -8 8 -17 0 -9 -9
-9 -17 -1 -32 14 -26 14 -35 0 -27 -29 19 -32 89 -3 78 10 -4 17 3 22 18 5 20
7 18 14 -19 4 -23 10 -48 13 -55z m418 -83 c62 -21 77 -29 72 -42 -17 -55 -44
-117 -49 -114 -3 1 -12 2 -19 2 -7 0 -18 13 -24 30 -7 20 -26 36 -58 52 -41
20 -45 25 -40 48 7 26 23 50 34 50 3 0 41 -12 84 -26z m-186 -6 c29 -8 33 -13
30 -41 -2 -26 2 -33 20 -35 42 -6 61 -63 33 -97 -15 -18 -74 -20 -88 -2 -19
22 -18 64 2 86 11 12 16 24 12 28 -12 13 -39 -12 -52 -48 l-11 -34 -7 35 c-7
42 -10 77 -8 109 2 18 6 22 20 16 9 -4 32 -11 49 -17z m295 -101 c-5 -7 -24
-54 -42 -104 -25 -73 -37 -93 -51 -93 -18 0 -18 2 -5 28 7 15 28 63 44 107 17
44 37 94 44 110 l12 30 4 -33 c2 -18 -1 -39 -6 -45z m1896 48 c-3 -3 -9 2 -12
12 -6 14 -5 15 5 6 7 -7 10 -15 7 -18z m-337 -2 c12 -16 12 -17 -1 -7 -8 6
-22 14 -30 17 -13 5 -12 6 1 6 9 1 23 -7 30 -16z m329 -28 c0 -8 -2 -15 -4
-15 -2 0 -6 7 -10 15 -3 8 -1 15 4 15 6 0 10 -7 10 -15z m-50 -4 c0 -5 9 -13
20 -16 11 -3 20 -11 20 -16 0 -6 -8 -5 -20 1 -18 10 -22 7 -35 -22 -13 -30
-14 -31 -14 -8 -1 35 10 70 20 70 5 0 9 -4 9 -9z m-1990 -54 c0 -23 -16 -55
-23 -47 -2 3 -2 22 1 42 4 39 22 43 22 5z m-184 -80 c-6 -37 -3 -47 20 -75 32
-38 45 -34 37 11 -3 22 0 37 9 45 12 10 14 7 10 -18 -3 -23 0 -30 12 -30 9 0
16 8 16 19 0 23 25 51 46 51 11 0 11 -6 -3 -35 -17 -35 -14 -53 7 -40 5 3 22
30 36 58 32 62 30 61 43 52 7 -4 0 -27 -19 -65 -19 -38 -26 -61 -19 -65 6 -4
13 -5 16 -2 2 3 18 -6 34 -20 23 -21 29 -35 29 -67 0 -64 -7 -69 -86 -59 l-69
8 23 20 c12 11 22 22 22 26 0 3 -24 16 -52 28 -88 36 -148 82 -148 112 0 49
12 89 27 89 12 0 14 -9 9 -43z m2435 -24 c13 -16 12 -17 -3 -4 -17 13 -22 21
-14 21 2 0 10 -8 17 -17z m-24 -29 c-3 -3 -12 -4 -19 -1 -8 3 -5 6 6 6 11 1
17 -2 13 -5z m-106 -37 c-6 -8 -7 -18 -3 -22 4 -5 1 -5 -6 -1 -10 6 -10 11 -1
22 6 8 14 14 16 14 3 0 0 -6 -6 -13z m-555 -16 c-10 -11 -24 -17 -32 -14 -7 3
-33 -4 -57 -16 -34 -17 -54 -20 -92 -14 l-49 6 45 14 c24 8 53 16 64 18 11 3
38 9 60 14 22 5 49 9 59 10 18 1 18 0 2 -18z m135 -1 c38 -12 69 -23 69 -25 0
-2 -34 -1 -75 2 -51 4 -79 2 -89 -6 -9 -8 -16 -8 -20 -2 -4 5 -1 13 5 16 5 4
8 13 5 21 -8 20 24 18 105 -6z m584 0 c-3 -5 -12 -10 -18 -10 -7 0 -6 4 3 10
19 12 23 12 15 0z m-2408 -66 c-1 -1 -14 -4 -29 -8 -25 -6 -28 -4 -28 18 0 25
0 25 29 8 16 -9 29 -17 28 -18z m1720 0 c-3 -3 -12 -4 -19 -1 -8 3 -5 6 6 6
11 1 17 -2 13 -5z m61 -1 c-10 -2 -26 -2 -35 0 -10 3 -2 5 17 5 19 0 27 -2 18
-5z m-1752 -58 c-9 -14 -23 -25 -32 -25 -9 0 -14 -6 -12 -12 3 -9 18 -11 44
-8 74 8 197 2 224 -11 8 -5 62 -15 120 -24 58 -10 131 -25 164 -36 62 -19 85
-17 66 6 -9 10 -4 15 21 20 39 9 128 10 136 2 9 -10 -30 -95 -60 -132 -40 -49
-69 -51 -184 -16 -199 60 -295 83 -306 72 -6 -6 -8 -13 -5 -17 3 -3 64 -21
135 -40 205 -54 383 -116 383 -133 0 -8 -7 -38 -16 -66 -14 -43 -20 -51 -35
-48 -17 5 -19 -1 -19 -69 0 -41 -5 -90 -11 -107 -11 -32 -12 -32 -62 -26 -36
5 -66 18 -102 45 -87 66 -174 103 -280 120 -106 17 -195 -20 -195 -82 0 -37
26 -37 33 1 4 19 15 32 37 41 41 17 52 4 19 -23 -34 -28 -45 -63 -27 -85 11
-15 11 -16 -3 -4 -9 7 -23 10 -32 6 -11 -4 -21 4 -31 25 -29 56 -21 83 45 156
34 37 68 83 75 101 17 40 23 44 16 9 -3 -18 0 -25 12 -25 21 0 28 35 24 117
-2 56 0 71 16 87 29 29 4 44 -30 17 -20 -15 -41 -21 -80 -21 -68 0 -101 -13
-116 -46 -9 -20 -9 -30 0 -45 16 -24 15 -29 -3 -29 -8 0 -22 11 -31 25 -14 21
-15 31 -5 51 15 34 4 50 -20 28 -30 -27 -22 2 11 40 18 20 26 37 21 41 -14 8
-47 -10 -60 -33 -6 -9 -11 -12 -11 -6 0 7 16 26 35 43 19 17 35 35 35 40 0 19
-69 24 -95 7 -25 -17 -55 -21 -55 -8 1 14 79 62 102 62 12 0 32 -7 42 -15 29
-22 38 -19 76 30 35 46 55 45 26 0z m1878 27 c3 -5 -1 -9 -9 -9 -8 0 -12 4 -9
9 3 4 7 8 9 8 2 0 6 -4 9 -8z m-1934 -17 c-14 -17 -30 -20 -30 -6 0 5 8 12 18
14 9 3 19 5 21 6 2 0 -2 -6 -9 -14z m-742 -104 c-5 -23 -60 -50 -80 -39 -24
12 -23 39 3 72 l20 26 30 -22 c16 -12 28 -29 27 -37z m1606 -22 c37 -29 34
-57 -9 -75 -40 -16 -85 -19 -85 -4 0 6 4 10 9 10 5 0 17 20 27 45 9 25 20 45
24 45 4 0 19 -9 34 -21z m1333 -10 c-9 -23 -24 -36 -57 -48 -25 -9 -45 -23
-45 -31 0 -8 6 -14 14 -12 8 2 27 6 42 9 l27 5 -48 -118 c-26 -66 -57 -136
-68 -157 l-21 -39 -6 34 c-3 18 -2 60 3 93 6 38 6 64 0 72 -5 6 -5 14 0 17 5
3 14 36 21 74 16 90 53 129 124 131 26 1 27 0 14 -30z m-210 10 c-18 -10 -185
-5 -196 6 -2 3 45 5 105 5 82 -1 104 -3 91 -11z m73 -8 c0 -6 -4 -12 -9 -16
-5 -3 -20 -36 -33 -73 -19 -55 -23 -88 -23 -184 0 -103 -2 -116 -14 -103 -11
11 -16 44 -17 121 -3 110 -8 129 -27 104 -7 -8 -19 -15 -27 -15 -8 0 -25 -18
-38 -40 l-23 -40 7 40 c3 22 14 52 25 67 10 15 19 32 19 38 0 5 9 10 20 10 13
0 20 -7 20 -20 0 -35 20 -22 43 28 37 77 47 92 62 92 8 0 15 -4 15 -9z m-2673
-7 c-3 -3 -12 -4 -19 -1 -8 3 -5 6 6 6 11 1 17 -2 13 -5z m-163 -57 c-183 -75
-368 -184 -494 -291 -69 -59 -91 -59 -25 0 71 63 197 146 322 212 110 57 286
131 313 132 8 0 -44 -24 -116 -53z m247 29 c-13 -16 -61 -28 -61 -15 0 11 32
28 54 29 15 0 16 -3 7 -14z m321 -1 c14 -5 -3 -20 -71 -64 -136 -86 -158 -105
-143 -124 11 -13 10 -19 -8 -37 -29 -29 -71 -23 -88 13 -17 34 -16 167 1 167
4 0 13 14 19 31 l11 32 131 -6 c72 -3 139 -8 148 -12z m-452 -55 c-85 -101
-139 -128 -141 -70 -1 17 -2 36 -3 43 -1 11 143 75 172 77 8 0 -5 -22 -28 -50z
m500 40 c0 -5 5 -9 10 -7 6 1 18 -10 27 -25 22 -35 12 -46 -54 -63 -56 -14
-68 -42 -16 -37 32 3 33 2 23 -23 -16 -42 -12 -61 22 -99 78 -89 185 -43 278
119 25 44 36 55 38 41 2 -10 -3 -23 -12 -28 -9 -5 -26 -28 -37 -51 -12 -23
-44 -66 -72 -94 l-51 -53 -81 0 c-79 0 -81 1 -114 35 -31 34 -35 35 -105 35
l-73 0 16 59 15 60 51 -2 c38 -2 50 1 50 13 0 8 -11 17 -25 21 -30 7 -18 13
54 25 47 9 77 34 41 34 -14 0 -15 3 -5 15 6 8 9 19 5 25 -3 5 -1 10 4 10 6 0
11 -4 11 -10z m2113 3 c-7 -2 -19 -2 -25 0 -7 3 -2 5 12 5 14 0 19 -2 13 -5z
m-593 -48 c0 -8 -5 -15 -12 -15 -6 0 -22 -10 -35 -22 -28 -26 -38 -20 -17 11
13 18 38 34 62 40 1 1 2 -6 2 -14z m-1237 -30 c-29 -55 -92 -143 -119 -164
-40 -31 -111 -24 -136 13 -14 20 -8 58 13 93 l21 34 34 -36 c23 -25 40 -36 56
-33 25 3 71 65 63 85 -3 7 -7 19 -10 26 -4 8 9 12 44 12 l49 0 -15 -30z m696
-1 c-10 -23 -13 -25 -16 -11 -3 10 1 25 8 33 17 21 21 11 8 -22z m-1659 -7 c0
-7 -20 -23 -45 -35 -34 -17 -43 -18 -38 -6 3 8 22 23 42 34 44 23 41 23 41 7z
m1631 -41 c41 -14 126 -51 190 -83 l117 -58 12 -55 c11 -51 10 -62 -13 -131
-14 -42 -53 -131 -86 -199 -34 -67 -59 -126 -56 -130 3 -4 -13 -3 -34 4 -21 6
-40 13 -41 16 -2 3 25 61 58 129 34 69 65 140 68 158 3 18 10 33 14 33 12 0
29 91 23 123 -3 15 -18 40 -33 56 -37 36 -147 93 -237 122 -40 12 -70 26 -67
31 7 10 -1 12 85 -16z m854 -27 c50 -44 43 -54 -12 -19 -26 17 -55 30 -64 30
-10 0 -21 5 -24 10 -4 6 8 10 29 10 25 0 45 -9 71 -31z m-837 -77 c2 -26 -6
-53 -24 -86 -31 -55 -32 -87 -9 -177 9 -34 14 -64 11 -66 -3 -3 -25 8 -50 24
-25 17 -42 33 -39 37 4 4 12 37 19 74 15 76 73 244 83 237 4 -2 8 -21 9 -43z
m834 21 c39 -43 61 -81 54 -98 -9 -23 -20 -18 -40 19 -10 19 -29 45 -42 57
-13 12 -24 28 -24 36 0 22 25 15 52 -14z m-2868 9 c3 -5 -23 -29 -57 -54 -52
-39 -65 -44 -86 -37 -15 6 -28 6 -34 0 -12 -12 0 -31 21 -31 11 0 13 -3 5 -11
-14 -14 -57 -2 -78 21 -16 18 -16 19 8 17 37 -3 35 15 -2 32 -37 17 -37 40 -1
58 28 14 216 18 224 5z m182 -29 c-21 -43 -28 -87 -17 -116 10 -26 9 -27 -23
-27 -33 0 -34 2 -41 48 -4 26 -11 52 -16 59 -11 13 63 63 94 63 16 0 16 -3 3
-27z m1925 17 c17 0 9 -18 -11 -23 -11 -3 -20 -4 -20 -2 0 2 -3 11 -7 21 -5
14 -3 16 11 11 10 -4 22 -7 27 -7z m96 -63 c38 -35 44 -61 29 -120 -12 -48
-28 -32 -21 22 6 45 5 50 -29 86 -20 21 -36 39 -36 41 0 13 25 -1 57 -29z
m-2147 -8 c0 -6 -11 -20 -25 -31 -14 -11 -23 -23 -20 -28 3 -4 -1 -10 -8 -13
-23 -9 -14 37 13 60 28 25 40 28 40 12z m2813 -4 c8 -18 -11 -31 -25 -17 -11
11 -3 32 12 32 4 0 10 -7 13 -15z m-1851 -38 c35 -36 38 -37 110 -37 l73 0 1
-39 c1 -22 11 -55 23 -74 l21 -34 -23 -20 c-38 -36 -94 -38 -193 -7 -62 20
-95 36 -111 54 -22 27 -112 60 -162 60 -22 0 -22 1 9 43 18 23 39 53 47 67 14
23 21 25 92 24 74 0 77 -1 113 -37z m-954 -44 c-10 -2 -28 -2 -40 0 -13 2 -5
4 17 4 22 1 32 -1 23 -4z m1435 -9 c62 -16 191 -76 202 -94 12 -19 -27 -10
-117 26 -50 20 -104 37 -122 39 -45 4 -66 15 -59 31 7 18 21 18 96 -2z m-1155
-41 c-10 -2 -28 -2 -40 0 -13 2 -5 4 17 4 22 1 32 -1 23 -4z m75 -10 c-7 -2
-21 -2 -30 0 -10 3 -4 5 12 5 17 0 24 -2 18 -5z m115 -10 c-10 -2 -26 -2 -35
0 -10 3 -2 5 17 5 19 0 27 -2 18 -5z m196 -13 c82 -13 166 -39 166 -50 0 -15
-25 -12 -101 11 -38 11 -101 27 -141 34 -66 12 -69 13 -28 14 25 1 72 -3 104
-9z m1015 -79 c9 -6 -13 -10 -60 -14 -41 -2 -85 -8 -99 -12 -38 -12 -16 5 27
20 43 16 111 19 132 6z m87 -13 c-18 -10 -39 -2 -31 12 3 4 15 6 26 3 19 -5
19 -7 5 -15z m94 -17 c-26 -14 -70 -22 -70 -12 0 13 19 19 55 20 21 0 26 -2
15 -8z m-393 -35 c115 -17 199 -43 287 -89 46 -24 56 -32 40 -35 -11 -1 -38 4
-60 12 -253 95 -303 106 -500 106 -81 0 -144 3 -140 8 7 6 252 20 267 15 3 -1
51 -9 106 -17z m418 -10 c-21 -14 -75 -27 -75 -18 0 13 38 31 65 32 28 0 28
-1 10 -14z m43 -39 c6 -5 12 -15 12 -23 0 -11 -4 -12 -19 -3 -13 9 -26 9 -49
1 -38 -13 -50 -3 -22 18 23 17 57 20 78 7z m-18 -67 c0 -5 -2 -10 -4 -10 -3 0
-8 5 -11 10 -3 6 -1 10 4 10 6 0 11 -4 11 -10z m-3899 -418 c20 -12 41 -33 47
-48 12 -24 9 -23 -35 12 -68 54 -113 96 -113 107 0 5 15 -4 33 -20 18 -16 49
-39 68 -51z m73 -144 c43 -25 60 -48 36 -48 -5 0 -10 4 -10 9 0 5 -24 24 -52
41 -74 45 -158 109 -158 120 0 5 31 -14 69 -43 37 -28 89 -64 115 -79z m-54
-58 c64 -38 90 -63 78 -75 -3 -3 -33 15 -68 40 -49 33 -67 41 -77 33 -10 -8
-12 -7 -8 3 3 9 -9 29 -30 49 -45 44 -46 62 0 22 19 -17 66 -49 105 -72z
m3710 3 c25 -18 25 -18 -45 -24 -38 -4 -80 -10 -92 -14 -34 -11 -28 10 10 34
39 25 94 27 127 4z m-3713 -109 c77 -51 104 -74 87 -74 -21 0 -135 72 -181
113 -57 53 -74 87 -20 43 17 -15 69 -52 114 -82z m5405 31 c23 -66 18 -338 -7
-429 -9 -32 -14 -65 -11 -72 3 -8 1 -14 -4 -14 -4 0 -14 -17 -21 -37 -19 -62
-59 -134 -69 -128 -5 3 -7 0 -4 -8 7 -19 -41 -57 -72 -57 -35 0 -56 41 -62
120 -2 39 -9 70 -14 70 -5 0 -6 6 -2 12 5 7 9 31 11 53 11 139 64 338 118 445
37 74 63 102 95 98 20 -2 28 -13 42 -53z m-5082 -96 c63 -20 275 -89 470 -153
386 -127 390 -128 412 -66 5 17 12 30 15 30 2 0 24 -5 49 -11 41 -11 45 -14
40 -35 -4 -13 -9 -45 -13 -72 -10 -81 -16 -86 -87 -78 -80 8 -340 78 -574 154
-122 40 -181 55 -178 46 3 -8 9 -21 13 -31 11 -27 -15 -5 -32 26 -11 21 -34
36 -97 61 -104 41 -171 74 -185 92 -7 9 -7 35 0 85 l10 72 21 -42 c20 -40 24
-42 136 -78z m3423 76 c21 -20 44 -50 54 -68 62 -121 67 -341 11 -550 -11 -43
-18 -80 -16 -83 3 -2 24 -5 46 -7 23 -1 42 -5 42 -9 0 -12 -25 -15 -60 -7 -19
4 -36 6 -39 4 -2 -3 -14 -29 -26 -60 -79 -192 -207 -325 -316 -325 -36 0 -48
6 -84 42 -28 29 -48 62 -60 98 -10 30 -21 57 -24 60 -3 3 -3 82 0 175 7 180
28 291 81 422 83 204 212 343 319 343 28 0 44 -8 72 -35z m-1983 -205 c41 -6
189 -31 329 -55 140 -25 263 -45 272 -45 25 0 76 -22 63 -27 -6 -2 -171 21
-365 52 -195 31 -367 58 -384 59 -16 2 -43 7 -60 12 l-30 8 25 7 c14 4 36 5
50 3 14 -2 59 -9 100 -14z m135 -169 c248 -54 371 -76 478 -87 37 -3 67 -10
67 -15 0 -12 -20 -11 -99 2 -48 7 -66 7 -71 -2 -6 -8 -9 -8 -11 0 -2 6 -155
40 -344 77 -186 36 -345 70 -352 76 -26 22 -11 26 45 12 31 -7 161 -36 287
-63z m648 -22 c16 -30 17 -50 12 -155 -9 -160 -15 -188 -43 -192 -20 -3 -21 0
-14 30 4 18 7 106 7 195 0 104 4 162 10 160 6 -2 18 -19 28 -38z m-719 -94
c149 -32 357 -63 499 -74 106 -9 127 -14 114 -28 -11 -10 -96 -21 -99 -12 -2
6 -610 119 -715 133 -15 2 -36 6 -45 10 -10 3 -25 8 -34 11 -8 3 -13 9 -10 14
3 5 42 1 88 -10 46 -10 137 -30 202 -44z m-1204 -38 c0 -7 -12 1 -25 16 -14
15 -25 33 -25 40 0 7 12 -1 25 -16 14 -15 25 -33 25 -40z m1052 -33 c62 -14
200 -38 308 -54 107 -16 241 -36 298 -45 57 -8 107 -13 112 -10 6 4 10 2 10
-3 0 -20 -30 -18 -225 15 -110 18 -213 32 -230 32 -16 -1 -37 1 -45 4 -8 3
-87 20 -175 38 -88 18 -170 34 -182 37 -13 2 -23 11 -23 19 0 11 4 11 20 3 11
-6 70 -22 132 -36z m3316 -9 c-2 -3 -54 -7 -114 -10 -60 -3 -170 -14 -244 -25
-201 -30 -243 -33 -90 -5 74 14 164 28 200 31 36 4 67 8 69 10 6 6 185 5 179
-1z m-4299 -31 c31 -40 25 -52 -9 -19 -16 16 -30 32 -30 37 0 16 19 7 39 -18z
m3571 -69 c-173 -39 -300 -73 -282 -74 6 -1 12 -6 12 -11 0 -7 -13 -8 -35 -4
-23 4 -49 1 -76 -10 -23 -9 -43 -15 -46 -12 -2 2 12 9 32 16 20 7 39 19 42 27
3 8 12 12 21 8 8 -3 37 2 65 11 59 20 352 82 387 82 14 1 -40 -14 -120 -33z
m-1064 -263 c-3 -6 -19 -15 -36 -20 -41 -15 -39 4 3 22 34 14 43 13 33 -2z
m-256 -91 c0 -9 -52 -31 -72 -31 -20 0 5 20 35 29 18 5 33 10 35 10 1 1 2 -3
2 -8z m640 -86 c0 -2 -20 -16 -43 -30 -44 -25 -97 -34 -97 -15 0 6 8 10 18 10
9 0 35 9 57 19 39 19 65 25 65 16z"/>
<path d="M3560 3445 c0 -8 5 -15 10 -15 6 0 10 7 10 15 0 8 -4 15 -10 15 -5 0
-10 -7 -10 -15z"/>
<path d="M3633 3416 c3 -8 1 -16 -5 -18 -17 -6 0 -28 30 -39 38 -15 51 5 16
25 l-29 16 28 -6 c35 -8 36 13 1 26 -35 14 -47 12 -41 -4z"/>
<path d="M3472 3338 c-28 -28 -7 -78 34 -78 29 0 46 23 42 57 -2 23 -8 29 -33
31 -17 2 -36 -3 -43 -10z"/>
<path d="M3500 3126 c0 -9 7 -16 16 -16 17 0 14 22 -4 28 -7 2 -12 -3 -12 -12z"/>
<path d="M3610 3014 c0 -9 5 -14 12 -12 18 6 21 28 4 28 -9 0 -16 -7 -16 -16z"/>
<path d="M3423 2815 c-3 -9 -3 -19 1 -22 7 -7 36 16 36 28 0 15 -30 10 -37 -6z"/>
<path d="M3022 2767 c-39 -40 -55 -77 -32 -77 18 0 101 93 96 107 -8 21 -19
16 -64 -30z"/>
<path d="M5576 1165 c-49 -53 -65 -180 -28 -218 19 -18 24 -19 45 -8 44 24 70
91 68 179 -1 71 -42 94 -85 47z m40 -146 c-12 -21 -24 -39 -28 -39 -4 0 0 12
8 28 7 15 14 45 14 68 0 54 13 66 21 19 5 -27 1 -47 -15 -76z m-45 4 c-9 -16
-10 -16 -11 -1 0 9 3 25 7 35 7 16 8 17 11 1 2 -10 -1 -25 -7 -35z"/>
<path d="M3915 1372 c-146 -89 -277 -403 -285 -682 -4 -130 -1 -170 13 -170
11 0 14 28 15 128 1 296 119 600 268 688 56 33 89 31 129 -9 46 -46 66 -118
72 -264 4 -95 9 -123 19 -123 11 0 14 23 14 105 0 224 -61 345 -175 345 -22 0
-54 -8 -70 -18z"/>
<path d="M3862 997 c-48 -51 -94 -217 -60 -217 10 0 17 15 22 45 13 96 49 112
44 20 -3 -51 -5 -54 -40 -70 -42 -18 -49 -45 -22 -83 16 -24 44 -28 74 -12 23
12 70 89 70 113 0 26 -19 20 -32 -10 -13 -30 -57 -83 -69 -83 -11 0 2 40 28
87 16 29 23 58 23 96 0 36 5 59 15 67 13 11 16 8 21 -19 8 -37 34 -42 34 -6 0
14 -7 41 -14 60 -12 28 -20 35 -44 35 -17 0 -37 -9 -50 -23z"/>
<path d="M4120 880 c0 -32 14 -40 24 -14 10 27 7 44 -9 44 -10 0 -15 -10 -15
-30z"/>
<path d="M3936 858 c-3 -13 -1 -27 3 -31 11 -11 35 29 26 43 -10 17 -22 11
-29 -12z"/>
<path d="M4090 755 c0 -8 -4 -23 -9 -33 -6 -9 -17 -42 -27 -72 -39 -129 -161
-287 -236 -308 -62 -17 -82 -7 -116 61 -18 34 -32 72 -32 85 0 12 -5 22 -10
22 -39 0 -4 -118 51 -172 48 -47 84 -49 156 -8 82 47 158 153 207 290 14 39
26 82 26 96 0 13 5 24 10 24 6 0 10 7 10 15 0 8 -7 15 -15 15 -8 0 -15 -7 -15
-15z"/>
<path d="M627 3764 c-12 -13 -8 -20 58 -95 75 -86 132 -188 141 -253 9 -63 30
-55 26 9 -2 27 -14 69 -27 95 l-24 47 25 -5 c13 -2 24 -1 24 4 0 23 -45 114
-57 114 -16 0 -16 -1 -3 -34 5 -14 6 -26 2 -26 -3 0 -41 34 -82 75 -42 42 -79
72 -83 69z"/>
<path d="M2620 3738 c0 -13 58 -38 89 -38 21 0 11 20 -14 30 -54 21 -75 23
-75 8z"/>
<path d="M2735 3701 c-3 -5 -1 -12 4 -16 15 -9 151 -55 191 -64 19 -5 52 -16
72 -25 21 -9 47 -16 58 -16 25 0 27 30 3 30 -10 1 -36 8 -58 16 -22 9 -53 19
-70 24 -16 4 -55 17 -85 28 -77 27 -108 34 -115 23z"/>
<path d="M4111 3691 c-8 -5 -41 -13 -73 -16 -50 -6 -67 -14 -106 -48 -48 -41
-66 -75 -52 -97 11 -17 31 -3 23 16 -5 13 -1 15 15 9 18 -5 22 -2 22 13 0 41
35 66 104 78 60 10 88 5 51 -10 -8 -3 -15 -10 -15 -17 0 -7 15 -9 49 -4 35 5
59 2 87 -10 32 -14 36 -18 21 -24 -27 -10 -22 -21 15 -40 39 -19 54 -48 61
-116 l5 -50 -23 29 c-29 37 -49 27 -28 -15 10 -19 13 -42 9 -65 -9 -44 19 -49
29 -4 4 19 13 30 23 30 9 0 23 4 31 9 11 7 11 13 -3 32 -9 13 -16 40 -16 60 0
22 -10 50 -24 72 -13 19 -27 44 -31 56 -9 30 -52 60 -96 67 -31 5 -38 10 -36
27 2 23 -20 32 -42 18z"/>
<path d="M31 3626 c-18 -19 -31 -41 -29 -51 2 -13 12 -9 46 23 23 21 42 44 42
50 0 22 -26 12 -59 -22z"/>
<path d="M3980 3573 c-30 -39 -9 -54 24 -17 14 16 26 32 26 37 0 17 -30 5 -50
-20z"/>
<path d="M3100 3580 c0 -5 7 -10 15 -10 8 0 15 5 15 10 0 6 -7 10 -15 10 -8 0
-15 -4 -15 -10z"/>
<path d="M4147 3584 c-11 -12 3 -24 29 -24 15 0 24 6 24 15 0 15 -40 21 -53 9z"/>
<path d="M4015 3550 c-10 -11 -15 -23 -11 -27 8 -8 59 20 64 36 6 19 -34 12
-53 -9z"/>
<path d="M3884 3495 c-19 -25 -24 -39 -17 -46 8 -8 13 -7 18 1 5 8 11 6 20 -7
13 -17 14 -17 20 0 4 9 2 24 -5 32 -10 12 -9 16 4 21 9 3 16 12 16 20 0 25
-29 14 -56 -21z"/>
<path d="M4040 3505 c0 -8 9 -15 20 -15 13 0 26 -12 37 -34 9 -19 26 -39 38
-46 30 -16 69 -9 73 12 3 15 -2 17 -26 12 -24 -5 -33 -1 -48 21 -33 47 -53 65
-74 65 -11 0 -20 -7 -20 -15z"/>
<path d="M4678 3469 c-10 -5 -18 -19 -18 -29 0 -11 -6 -20 -13 -20 -26 0 -76
-31 -82 -51 -4 -13 0 -28 11 -40 21 -23 44 -25 44 -4 0 13 4 14 20 5 11 -6 20
-18 20 -27 0 -13 -3 -14 -11 -6 -18 18 -129 -94 -129 -130 0 -34 23 -32 28 2
2 12 21 34 42 49 21 15 43 36 49 47 5 11 10 14 10 8 2 -25 29 -12 40 18 6 17
15 28 20 24 7 -3 7 -15 1 -30 -6 -16 -6 -27 1 -31 13 -8 25 4 32 31 4 12 5 9
4 -9 -3 -38 20 -45 33 -12 5 14 14 26 21 26 25 0 -1 26 -37 36 -24 7 -40 18
-43 29 -3 15 2 17 30 11 42 -8 79 -32 79 -51 0 -8 7 -15 15 -15 8 0 15 9 15
20 0 18 -13 35 -52 66 -7 5 -25 24 -39 41 -22 26 -59 54 -71 53 -2 0 -11 -5
-20 -11z m51 -43 l22 -23 -25 -5 c-25 -5 -36 7 -36 38 0 21 13 17 39 -10z
m-55 -42 c9 -3 16 -15 16 -25 0 -18 -2 -19 -30 -4 -46 24 -34 47 14 29z"/>
<path d="M3981 3454 c-16 -11 -19 -20 -12 -27 7 -7 15 -6 25 2 11 10 17 8 29
-10 15 -20 37 -19 37 2 0 11 -37 49 -48 49 -4 0 -18 -7 -31 -16z"/>
<path d="M1975 3428 c-30 -16 -75 -60 -75 -74 0 -6 -7 -14 -15 -18 -8 -3 -15
-10 -15 -16 0 -15 30 -12 31 3 0 13 75 77 91 77 18 0 0 -102 -37 -208 -51
-147 -106 -269 -191 -422 -82 -148 -107 -173 -142 -138 -20 20 -19 21 48 187
97 237 136 327 176 399 37 68 41 82 21 82 -7 0 -39 -55 -72 -122 -33 -68 -61
-125 -62 -127 -1 -2 -16 2 -33 9 l-30 12 -1 112 c0 134 -13 181 -49 181 -18 0
-30 -10 -47 -40 -13 -22 -21 -45 -18 -52 2 -6 -3 -17 -11 -24 -8 -7 -14 -19
-13 -28 1 -9 -4 -31 -11 -49 -10 -28 -16 -32 -34 -27 -11 4 -41 9 -66 12 -65
7 -83 -10 -90 -84 l-5 -58 -48 -1 c-26 0 -50 -4 -54 -8 -13 -12 20 -26 63 -26
53 0 74 22 74 81 0 69 22 81 102 57 32 -9 38 -15 34 -32 -3 -12 -10 -89 -17
-172 -12 -146 -13 -150 -34 -147 -12 3 -27 -2 -34 -10 -16 -21 1 -30 33 -17
31 11 34 0 6 -18 -25 -15 -16 -35 12 -27 12 4 27 0 38 -10 12 -11 26 -14 44
-9 16 4 26 2 26 -5 0 -6 -8 -11 -19 -11 -10 0 -24 -6 -30 -14 -10 -12 -6 -15
26 -18 30 -2 38 -7 38 -23 0 -13 7 -20 20 -21 11 -1 33 -5 49 -9 24 -7 28 -5
23 8 -10 26 20 43 54 30 36 -14 51 3 23 25 -16 12 -16 14 -2 9 22 -8 33 10 18
27 -15 19 114 268 136 259 8 -3 14 1 14 10 0 8 -4 17 -10 19 -5 2 8 44 29 93
85 198 115 351 73 374 -11 6 -24 6 -37 -1z m-367 -145 c-5 -27 -10 -60 -11
-75 -1 -14 -5 -24 -9 -21 -5 2 -8 -1 -8 -6 0 -6 5 -11 11 -11 6 0 3 -7 -6 -16
-9 -10 -14 -25 -12 -35 3 -12 -2 -20 -15 -25 -16 -5 -18 -8 -7 -15 18 -11 40
17 32 39 -4 10 -3 14 1 10 4 -3 8 -12 10 -20 1 -7 5 -19 9 -25 8 -13 -8 -18
-45 -15 -14 1 -18 -6 -18 -29 0 -16 4 -28 9 -25 5 3 7 16 3 29 -5 19 -4 20 11
9 9 -8 15 -19 14 -25 -1 -7 9 -11 23 -10 14 1 18 0 8 -3 -10 -3 -18 -9 -18
-14 0 -5 7 -6 17 -3 11 4 14 3 9 -5 -4 -7 -14 -12 -22 -12 -8 0 -14 -5 -14
-10 0 -13 -32 -9 -43 5 -5 6 -6 0 -2 -12 3 -12 1 -24 -5 -28 -7 -4 -10 -40 -9
-91 1 -47 -2 -88 -6 -92 -11 -10 3 258 17 338 6 36 12 75 13 87 1 13 5 26 8
30 4 3 7 15 7 25 0 16 45 98 54 98 2 0 -1 -21 -6 -47z m12 -98 c0 -19 -2 -35
-4 -35 -2 0 -6 16 -8 35 -2 19 0 35 4 35 4 0 8 -16 8 -35z m0 -142 c0 -11 -3
-14 -8 -7 -4 6 -14 14 -22 17 -10 4 -8 6 8 6 15 1 22 -5 22 -16z m71 -91 l-26
-66 -6 49 c-3 28 -2 62 3 77 8 24 12 26 32 16 l23 -10 -26 -66z m-122 -78
c-18 -22 -21 -11 -7 27 11 30 13 31 16 11 2 -13 -2 -30 -9 -38z m21 -39 c-7
-8 -10 -22 -6 -30 4 -11 2 -14 -6 -9 -8 5 -9 2 -5 -9 3 -10 2 -17 -2 -17 -5 0
-11 7 -15 15 -3 8 -2 15 3 15 4 0 14 19 22 42 9 27 15 36 17 25 2 -10 -2 -24
-8 -32z m-40 0 c0 -8 -4 -15 -10 -15 -5 0 -7 7 -4 15 4 8 8 15 10 15 2 0 4 -7
4 -15z m-5 -75 c3 -5 1 -10 -4 -10 -6 0 -11 5 -11 10 0 6 2 10 4 10 3 0 8 -4
11 -10z"/>
<path d="M1556 3011 c-4 -6 -12 -9 -17 -6 -5 4 -9 1 -9 -4 0 -6 7 -11 15 -11
8 0 15 -5 15 -12 0 -9 3 -9 11 -1 7 7 8 17 1 28 -6 12 -11 14 -16 6z"/>
<path d="M3860 3404 c-14 -35 -12 -54 4 -54 14 0 26 29 26 63 0 26 -19 21 -30
-9z"/>
<path d="M2776 3413 c-12 -12 -5 -21 25 -33 35 -15 74 -62 84 -102 4 -15 14
-33 23 -40 13 -12 15 -8 10 30 -4 23 -2 42 2 42 24 0 76 -62 106 -125 36 -76
85 -132 104 -120 8 5 2 17 -19 39 -16 17 -43 60 -60 97 -34 75 -79 124 -130
140 -20 6 -47 22 -61 35 -28 25 -75 46 -84 37z"/>
<path d="M2703 3395 c-12 -8 -24 -28 -28 -43 -6 -30 -48 -54 -96 -56 -15 0
-36 -10 -48 -20 -20 -18 -22 -18 -41 -1 -22 20 -99 29 -145 17 -26 -7 -33 -4
-72 36 -40 43 -43 44 -65 30 -33 -22 -33 -44 -3 -90 15 -22 35 -65 46 -96 10
-30 24 -60 29 -67 10 -12 -25 -81 -117 -232 l-19 -32 -78 40 c-85 43 -96 46
-96 26 0 -7 35 -30 79 -51 66 -33 78 -42 73 -59 -14 -52 31 2 116 143 83 139
91 155 77 170 -8 9 -24 43 -35 76 -11 32 -32 75 -46 96 -30 42 -24 70 8 41 11
-10 29 -35 39 -55 21 -41 33 -47 43 -22 3 9 15 14 28 12 25 -3 43 -52 28 -77
-7 -13 -10 -11 -21 12 -14 30 -39 36 -39 9 0 -10 7 -28 16 -40 13 -18 25 -22
74 -22 62 0 83 12 95 53 8 24 53 77 67 77 14 0 9 -27 -8 -41 -8 -7 -27 -35
-40 -62 -14 -27 -38 -56 -55 -65 -30 -18 -35 -27 -19 -37 21 -13 70 27 96 77
l26 51 19 -32 c22 -36 45 -42 34 -8 -24 74 -8 137 34 137 28 0 35 -49 10 -76
-31 -33 -22 -73 9 -42 9 9 12 9 12 0 0 -7 5 -12 10 -12 6 0 10 13 10 29 0 20
8 35 27 49 29 21 24 49 -7 32 -20 -11 -30 4 -30 45 0 36 11 56 36 66 13 4 24
13 24 19 0 15 -32 12 -57 -5z m-273 -181 c0 -18 -3 -35 -7 -37 -5 -3 -8 7 -8
21 -1 15 -5 38 -9 52 -8 22 -7 23 8 11 9 -7 16 -28 16 -47z m44 21 c4 -14 2
-33 -3 -43 -9 -15 -10 -13 -11 9 0 14 -5 30 -11 36 -12 12 -3 37 11 28 4 -3
11 -16 14 -30z"/>
<path d="M3971 3396 c-7 -9 -14 -30 -14 -48 -2 -27 2 -34 19 -36 16 -2 25 5
34 29 19 46 -11 88 -39 55z"/>
<path d="M4100 3371 c0 -16 -3 -36 -6 -45 -9 -23 19 -20 41 4 33 37 64 20 44
-24 -13 -27 -35 -40 -44 -26 -10 16 -35 12 -35 -5 0 -8 -4 -15 -9 -15 -10 0
-12 -23 -11 -111 1 -51 -2 -59 -30 -82 -29 -25 -86 -47 -121 -47 -8 0 -24 6
-34 14 -17 12 -18 17 -7 41 9 20 17 25 32 20 17 -5 20 -2 20 24 0 24 4 31 20
31 34 0 22 18 -24 39 -67 29 -104 111 -50 111 34 0 26 22 -12 32 -36 10 -62 2
-46 -14 6 -6 8 -17 5 -24 -9 -24 6 -62 38 -99 21 -23 26 -35 16 -35 -17 0 -67
-38 -67 -51 0 -14 26 -11 40 6 22 27 32 16 11 -11 -28 -36 -26 -68 5 -93 30
-24 60 -26 117 -9 45 14 117 76 117 101 0 12 9 17 28 17 55 0 101 -20 135 -60
38 -45 47 -49 47 -20 0 46 -100 110 -173 110 -14 0 -29 4 -32 10 -3 6 9 9 32
7 51 -3 54 26 4 30 -19 2 -38 8 -42 15 -10 17 1 40 17 34 47 -18 108 60 86
109 -9 20 -19 25 -47 25 -19 0 -35 5 -35 10 0 6 -7 10 -15 10 -10 0 -15 -10
-15 -29z"/>
<path d="M826 3348 c-2 -7 -12 -52 -24 -100 -11 -47 -31 -109 -43 -138 l-22
-52 -16 43 c-19 50 -48 68 -37 23 35 -155 32 -205 -24 -323 -35 -73 -34 -71
-15 -71 25 0 76 121 94 226 5 27 24 84 43 126 39 91 21 90 201 6 161 -75 208
-91 220 -79 6 6 -2 15 -24 25 -19 8 -97 44 -174 79 -78 36 -150 67 -162 71
-20 6 -21 9 -7 64 16 69 18 112 4 112 -6 0 -12 -6 -14 -12z"/>
<path d="M2737 3353 c-14 -13 -6 -23 16 -23 33 0 58 -31 64 -79 5 -36 3 -41
-11 -35 -19 7 -56 -21 -56 -43 0 -18 15 -17 30 2 12 14 16 13 41 -11 33 -31
53 -25 39 12 -6 14 -10 41 -10 60 0 39 -12 68 -43 102 -20 21 -56 29 -70 15z"/>
<path d="M4216 3278 c-21 -30 -22 -98 -1 -98 8 0 15 9 15 20 0 22 7 25 30 10
22 -14 37 5 32 40 -4 31 -32 43 -32 14 0 -8 -5 -12 -11 -9 -6 4 -8 13 -5 21 9
24 -12 25 -28 2z"/>
<path d="M4820 3266 c-12 -31 -40 -46 -93 -50 -45 -2 -76 -15 -96 -40 -21 -25
-2 -40 23 -19 31 28 69 42 98 36 16 -3 43 5 73 20 44 24 75 26 75 6 0 -5 -15
-15 -32 -23 -41 -17 -84 -61 -69 -71 6 -3 24 3 39 15 15 12 42 28 60 35 24 11
32 20 32 39 0 27 -41 63 -59 52 -5 -3 -11 1 -15 9 -8 23 -25 18 -36 -9z"/>
<path d="M2780 3255 c0 -8 5 -15 10 -15 6 0 10 7 10 15 0 8 -4 15 -10 15 -5 0
-10 -7 -10 -15z"/>
<path d="M4304 3209 c-3 -6 -4 -12 -1 -15 13 -13 181 -65 195 -59 22 8 5 22
-51 40 -26 8 -67 22 -92 29 -29 10 -47 11 -51 5z"/>
<path d="M2771 3141 c-27 -49 0 -108 33 -75 22 22 18 88 -6 92 -9 2 -21 -6
-27 -17z"/>
<path d="M2660 3124 c-13 -34 -13 -44 4 -44 15 0 26 21 26 51 0 27 -19 23 -30
-7z"/>
<path d="M4750 3110 c-15 -11 -47 -20 -75 -22 -36 -2 -50 -7 -50 -18 0 -8 -24
-55 -53 -103 -59 -99 -132 -241 -132 -257 0 -5 6 -10 13 -10 7 0 30 35 51 78
21 43 63 120 95 172 55 91 58 94 105 106 49 13 100 50 90 65 -8 13 -16 11 -44
-11z"/>
<path d="M2840 3075 c0 -18 24 -30 40 -20 8 5 8 11 -1 21 -15 19 -39 18 -39
-1z"/>
<path d="M4777 3073 c-4 -3 -7 -9 -7 -13 0 -15 145 -62 205 -65 6 0 16 -4 23
-9 8 -5 18 -4 24 2 13 13 -45 39 -106 49 -23 3 -52 11 -66 18 -38 19 -66 26
-73 18z"/>
<path d="M5860 2993 c0 -9 15 -33 34 -53 19 -19 51 -60 70 -90 l36 -55 0 36
c0 37 -16 65 -74 127 -42 45 -66 58 -66 35z"/>
<path d="M4050 2990 c0 -5 5 -10 10 -10 6 0 10 5 10 10 0 6 -4 10 -10 10 -5 0
-10 -4 -10 -10z"/>
<path d="M2980 2967 c0 -19 40 -41 53 -28 8 8 5 15 -9 26 -24 18 -44 19 -44 2z"/>
<path d="M1930 2926 c0 -9 7 -16 16 -16 9 0 14 5 12 12 -6 18 -28 21 -28 4z"/>
<path d="M4701 2601 c-36 -50 -23 -70 17 -28 23 25 28 42 13 52 -5 3 -19 -8
-30 -24z"/>
<path d="M4782 2547 c-26 -28 -29 -65 -5 -74 20 -8 76 51 71 75 -5 26 -41 26
-66 -1z"/>
<path d="M925 2498 c-54 -12 -145 -57 -145 -74 0 -19 2 -18 60 11 63 32 128
47 152 34 25 -14 23 -27 -15 -80 l-32 -46 0 55 c0 35 -5 57 -12 59 -9 3 -13
-5 -13 -24 0 -34 -53 -73 -101 -73 -17 0 -44 -10 -61 -21 -26 -19 -29 -27 -26
-59 3 -30 -1 -41 -16 -50 -20 -12 -19 -13 3 -31 l23 -19 -37 -16 c-21 -9 -49
-13 -63 -9 -22 5 -24 9 -18 45 7 46 -10 63 -24 24 -11 -28 -5 -64 11 -64 5 0
9 -6 9 -14 0 -8 8 -17 18 -21 13 -5 1 -13 -47 -32 -86 -32 -97 -11 -46 87 19
37 150 173 200 208 34 23 28 41 -9 24 -31 -14 -152 -127 -187 -175 -15 -21
-44 -49 -65 -63 -44 -30 -53 -29 -211 21 -118 38 -137 41 -131 23 3 -7 62 -31
132 -54 70 -22 126 -45 124 -50 -2 -5 -34 -37 -72 -71 -73 -66 -149 -159 -143
-176 6 -20 25 -18 32 2 3 11 21 38 38 59 51 61 181 175 185 163 5 -15 32 -14
32 2 0 8 4 7 10 -3 15 -23 12 -29 -10 -23 -24 6 -28 -22 -4 -31 28 -11 55 -6
122 21 206 82 487 333 458 408 -2 7 2 16 11 19 47 18 -58 29 -132 14z m-85
-183 c19 -22 4 -64 -25 -71 -47 -12 -71 31 -38 68 20 22 46 23 63 3z"/>
<path d="M4890 2360 c0 -5 7 -10 15 -10 8 0 15 5 15 10 0 6 -7 10 -15 10 -8 0
-15 -4 -15 -10z"/>
<path d="M1175 2351 c-7 -12 12 -24 25 -16 11 7 4 25 -10 25 -5 0 -11 -4 -15
-9z"/>
<path d="M1049 2279 c-88 -52 -251 -172 -283 -208 -14 -15 -16 -25 -9 -32 7
-7 21 -2 44 19 85 74 180 145 265 198 51 31 91 61 88 66 -9 14 -17 10 -105
-43z"/>
<path d="M2 2275 c3 -16 86 -55 116 -55 27 0 10 22 -30 39 -76 32 -90 35 -86
16z"/>
<path d="M3272 2069 c2 -6 8 -10 13 -10 5 0 11 4 13 10 2 6 -4 11 -13 11 -9 0
-15 -5 -13 -11z"/>
<path d="M710 2015 c0 -8 -6 -15 -14 -15 -7 0 -19 -14 -26 -31 -11 -27 -11
-33 7 -56 10 -15 46 -41 79 -59 83 -46 419 -155 609 -198 88 -20 187 -43 220
-51 40 -9 63 -11 70 -4 15 15 -7 24 -99 44 -404 84 -833 227 -851 284 -8 27 5
71 21 71 8 0 14 7 14 15 0 8 -7 15 -15 15 -8 0 -15 -7 -15 -15z"/>
<path d="M3157 2015 c-158 -30 -319 -111 -433 -217 -85 -80 -111 -116 -94
-131 9 -9 16 -6 28 13 26 39 128 141 106 105 -44 -71 -54 -101 -54 -156 0 -74
27 -115 99 -151 l55 -28 -36 0 c-19 0 -57 7 -84 15 -61 18 -64 18 -64 0 0 -19
57 -35 150 -42 162 -11 379 60 527 173 85 65 159 155 148 181 -6 16 -9 15 -28
-10 -94 -122 -193 -198 -334 -258 -69 -29 -89 -33 -173 -33 -113 -1 -175 23
-211 80 -82 133 105 356 351 421 88 23 222 23 281 0 71 -27 101 -64 103 -129
1 -40 5 -53 16 -53 25 0 24 73 -2 125 -46 90 -182 127 -351 95z"/>
<path d="M3110 1945 c-137 -38 -285 -137 -328 -220 -23 -44 -32 -95 -21 -121
13 -36 28 -29 27 14 0 20 5 50 11 66 14 36 67 103 91 116 17 9 17 7 -1 -27
-22 -42 -10 -78 22 -70 10 3 22 1 25 -4 11 -19 24 -8 22 19 -3 39 51 131 96
164 53 38 107 51 193 46 59 -4 79 -10 108 -32 44 -34 44 -46 2 -46 -18 0 -57
-7 -87 -16 -41 -12 -59 -13 -78 -5 -33 15 -85 -2 -112 -36 -23 -29 -26 -79 -7
-108 7 -11 14 -37 16 -57 1 -31 -2 -38 -16 -38 -26 1 -58 21 -83 53 -15 19
-26 25 -33 18 -22 -22 62 -101 108 -101 8 0 15 -4 15 -10 0 -5 -6 -10 -14 -10
-29 0 -69 -21 -60 -30 14 -14 116 14 201 55 129 63 223 171 223 256 0 47 -30
92 -76 114 -52 25 -172 29 -244 10z m92 -162 c38 -34 8 -113 -44 -113 -28 0
-68 38 -68 65 0 11 7 31 16 43 18 27 69 30 96 5z"/>
<path d="M5852 1898 c2 -14 10 -23 21 -23 10 0 22 -7 28 -15 13 -18 8 -5 -10
33 -17 33 -44 37 -39 5z"/>
<path d="M5145 1870 c-3 -6 1 -13 9 -16 9 -3 13 -10 11 -15 -3 -4 9 -48 26
-96 55 -149 41 -279 -47 -455 -15 -30 -20 -49 -13 -53 19 -12 38 16 73 108 46
119 60 186 53 261 -5 65 -50 210 -73 237 -8 8 -14 21 -14 27 0 15 -17 16 -25
2z"/>
<path d="M4606 1843 c-11 -11 -6 -23 9 -23 8 0 15 4 15 9 0 13 -16 22 -24 14z"/>
<path d="M2576 1831 c-3 -5 1 -11 9 -15 15 -6 29 7 18 18 -9 9 -21 8 -27 -3z"/>
<path d="M2448 1787 c-38 -18 -68 -38 -68 -44 0 -7 5 -13 11 -13 21 0 159 69
159 79 0 18 -31 11 -102 -22z"/>
<path d="M2250 1703 c-58 -25 -145 -59 -195 -75 -89 -30 -92 -31 -237 -25
-133 6 -169 1 -139 -17 26 -16 200 -26 271 -15 103 15 420 136 420 160 0 19
-21 14 -120 -28z"/>
<path d="M590 1665 c0 -8 9 -15 20 -15 11 0 20 7 20 15 0 8 -9 15 -20 15 -11
0 -20 -7 -20 -15z"/>
<path d="M645 1659 c-4 -6 -5 -12 -3 -14 6 -7 720 -195 738 -195 10 0 22 -5
25 -10 4 -6 11 -8 16 -4 12 7 7 29 -7 30 -5 0 -16 3 -24 7 -14 6 -728 197
-735 197 -2 0 -7 -5 -10 -11z"/>
<path d="M490 1635 c0 -8 7 -15 15 -15 8 0 15 7 15 15 0 8 -7 15 -15 15 -8 0
-15 -7 -15 -15z"/>
<path d="M2607 1644 c-8 -8 1 -24 14 -24 5 0 9 7 9 15 0 15 -12 20 -23 9z"/>
<path d="M608 1613 c6 -2 18 -2 25 0 6 3 1 5 -13 5 -14 0 -19 -2 -12 -5z"/>
<path d="M2597 1603 c-20 -20 15 -107 48 -120 26 -9 29 4 6 32 -11 15 -23 42
-27 61 -6 33 -14 41 -27 27z"/>
<path d="M748 1583 c7 -3 16 -2 19 1 4 3 -2 6 -13 5 -11 0 -14 -3 -6 -6z"/>
<path d="M788 1573 c7 -3 16 -2 19 1 4 3 -2 6 -13 5 -11 0 -14 -3 -6 -6z"/>
<path d="M2794 1568 c-17 -27 84 -72 151 -66 51 4 43 21 -12 24 -23 1 -62 13
-87 27 -30 16 -48 22 -52 15z"/>
<path d="M828 1563 c7 -3 16 -2 19 1 4 3 -2 6 -13 5 -11 0 -14 -3 -6 -6z"/>
<path d="M581 1544 c0 -11 3 -14 6 -6 3 7 2 16 -1 19 -3 4 -6 -2 -5 -13z"/>
<path d="M868 1553 c7 -3 16 -2 19 1 4 3 -2 6 -13 5 -11 0 -14 -3 -6 -6z"/>
<path d="M908 1543 c7 -3 16 -2 19 1 4 3 -2 6 -13 5 -11 0 -14 -3 -6 -6z"/>
<path d="M955 1530 c11 -5 27 -9 35 -9 9 0 8 4 -5 9 -11 5 -27 9 -35 9 -9 0
-8 -4 5 -9z"/>
<path d="M1018 1513 c7 -3 16 -2 19 1 4 3 -2 6 -13 5 -11 0 -14 -3 -6 -6z"/>
<path d="M1128 1483 c7 -3 16 -2 19 1 4 3 -2 6 -13 5 -11 0 -14 -3 -6 -6z"/>
<path d="M1168 1473 c7 -3 16 -2 19 1 4 3 -2 6 -13 5 -11 0 -14 -3 -6 -6z"/>
<path d="M1208 1463 c7 -3 16 -2 19 1 4 3 -2 6 -13 5 -11 0 -14 -3 -6 -6z"/>
<path d="M1278 1443 c7 -3 16 -2 19 1 4 3 -2 6 -13 5 -11 0 -14 -3 -6 -6z"/>
<path d="M1318 1433 c7 -3 16 -2 19 1 4 3 -2 6 -13 5 -11 0 -14 -3 -6 -6z"/>
<path d="M1525 1360 c-7 -12 2 -30 16 -30 12 0 12 27 0 35 -5 3 -12 1 -16 -5z"/>
<path d="M5100 1211 c0 -13 -94 -166 -140 -227 -61 -81 -95 -110 -144 -123
-29 -7 -46 -17 -46 -26 0 -33 93 -5 144 43 66 63 196 258 196 295 0 9 5 17 10
17 6 0 10 7 10 15 0 8 -7 15 -15 15 -8 0 -15 -4 -15 -9z"/>
<path d="M5855 495 c-77 -30 -134 -54 -126 -55 11 0 11 -3 0 -17 -8 -9 -9 -14
-3 -12 5 2 69 26 142 54 101 38 132 54 132 67 0 10 -1 18 -2 17 -2 0 -66 -25
-143 -54z"/>
<path d="M5940 471 c-25 -10 -94 -35 -154 -56 -71 -25 -120 -49 -140 -68 -23
-21 -26 -27 -11 -22 271 99 346 125 355 125 5 0 10 9 10 20 0 23 -1 23 -60 1z"/>
<path d="M5439 323 c-13 -16 -12 -17 4 -4 9 7 17 15 17 17 0 8 -8 3 -21 -13z"/>
<path d="M5280 289 c-58 -23 -154 -58 -213 -79 -59 -21 -114 -43 -121 -49 -7
-6 -15 -8 -19 -5 -10 10 -47 -7 -47 -22 0 -18 34 -18 50 0 6 8 17 13 23 10 27
-10 457 153 457 173 0 19 -15 16 -130 -28z"/>
<path d="M5380 250 c-47 -22 -102 -46 -122 -55 -37 -14 -47 -28 -29 -39 13 -9
261 107 261 121 0 20 -19 16 -110 -27z"/>
<path d="M5173 153 c-7 -2 -13 -11 -13 -20 0 -20 34 -12 38 10 3 17 -3 20 -25
10z"/>
<path d="M4630 71 c-175 -59 -199 -69 -161 -70 27 -1 104 18 205 50 177 56
192 62 189 75 -4 19 -34 12 -233 -55z"/>
<path d="M4958 66 c-144 -56 -154 -61 -118 -64 28 -2 72 10 156 43 123 48 147
61 138 76 -7 12 2 15 -176 -55z"/>
</g>
</svg>
